<svg xmlns="http://www.w3.org/2000/svg" version="1.0" preserveAspectRatio="xMidYMid meet" viewBox="104.39 134.18 229.41 145.32">

  <g transform="translate(0.000000,406.000000) scale(0.100000,-0.100000)" fill="#000000" stroke="none">
    <path d="M2018 2707 c-135 -51 -216 -147 -240 -284 -10 -62 -10 -79 6 -135 31 -112 88 -183 190 -235 73 -38 198 -44 278 -13 75 28 155 101 193 177 27 52 30 68 30 153 0 85 -3 101 -29 153 -35 68 -108 140 -174 170 -59 26 -199 34 -254 14z m92 -102 l0 -75 -65 0 c-36 0 -65 3 -65 8 0 20 45 90 73 115 50 43 57 37 57 -48z m90 49 c29 -25 70 -91 70 -114 0 -6 -25 -10 -60 -10 l-60 0 0 75 c0 41 4 75 9 75 5 0 24 -12 41 -26z m-212 -11 c-2 -5 -15 -32 -29 -60 -23 -50 -26 -53 -62 -53 -34 0 -37 2 -28 19 13 23 100 101 113 101 5 0 8 -3 6 -7z m328 -22 c35 -25 74 -70 74 -86 0 -3 -15 -5 -34 -5 -31 0 -35 4 -63 60 -16 33 -27 60 -23 60 4 0 25 -13 46 -29z m-396 -158 c0 -63 -8 -73 -61 -73 l-48 0 6 33 c10 57 20 67 63 67 37 0 40 -2 40 -27z m190 -23 l0 -50 -80 0 -81 0 6 38 c11 63 9 62 85 62 l70 0 0 -50z m184 19 c13 -69 13 -69 -69 -69 l-75 0 0 50 0 50 69 0 69 0 6 -31z m135 -6 c17 -61 16 -63 -39 -63 -42 0 -50 3 -50 19 0 10 -3 33 -6 50 l-6 31 45 0 c45 0 46 -1 56 -37z m-515 -125 c3 -13 6 -35 6 -50 0 -26 -3 -28 -40 -28 -43 0 -53 10 -63 68 l-6 32 48 0 c42 0 49 -3 55 -22z m194 -25 l-3 -48 -68 -3 c-73 -3 -71 -5 -82 61 l-6 37 81 0 81 0 -3 -47z m192 28 c0 -10 -3 -33 -6 -50 l-6 -31 -69 0 -69 0 0 50 0 50 75 0 c67 0 75 -2 75 -19z m140 7 c0 -7 -5 -30 -11 -50 -10 -37 -11 -38 -56 -38 -42 0 -45 2 -39 23 3 12 6 34 6 50 0 26 2 27 50 27 33 0 50 -4 50 -12z m-478 -188 c15 -33 23 -60 18 -60 -12 0 -120 100 -120 111 0 5 17 9 38 9 36 -1 38 -3 64 -60z m148 -15 c0 -45 -4 -75 -10 -75 -32 0 -97 73 -114 128 -7 21 -5 22 58 22 l66 0 0 -75z m160 65 c0 -37 -81 -140 -111 -140 -5 0 -9 34 -9 75 l0 75 60 0 c35 0 60 -4 60 -10z m120 5 c0 -23 -97 -115 -120 -115 -4 0 7 27 23 60 28 56 32 60 63 60 19 0 34 -2 34 -5z"/>
    <path d="M1113 2690 c-55 -33 -82 -109 -63 -182 9 -36 30 -61 121 -148 114 -109 134 -143 122 -201 -10 -51 -66 -74 -115 -48 -23 12 -48 67 -48 105 0 25 -2 26 -37 19 -21 -3 -41 -10 -45 -14 -13 -12 18 -110 43 -137 37 -39 73 -54 132 -54 94 0 157 64 157 160 -1 68 -31 124 -107 193 -147 135 -143 131 -143 179 0 55 22 78 73 78 47 0 75 -27 83 -80 5 -33 10 -40 25 -35 64 18 61 15 54 53 -16 88 -71 132 -165 132 -37 0 -66 -6 -87 -20z"/>
    <path d="M1417 2702 c-3 -4 -3 -19 0 -35 5 -25 8 -27 59 -27 l54 0 0 -300 0 -300 24 -6 c14 -3 33 -4 43 -2 17 3 18 22 21 306 l2 302 55 0 55 0 0 35 0 35 -154 0 c-85 0 -157 -3 -159 -8z"/>
    <path d="M2637 2695 c-78 -40 -89 -88 -85 -346 3 -184 5 -207 24 -239 33 -56 77 -80 148 -80 115 0 165 52 174 181 l5 69 -46 0 -45 0 -4 -71 c-3 -60 -8 -74 -27 -90 -34 -28 -82 -24 -112 7 -23 25 -24 31 -27 207 -4 206 1 260 29 288 19 19 83 26 105 11 22 -14 34 -52 34 -106 l0 -56 45 0 45 0 -1 53 c0 73 -27 136 -68 164 -27 18 -48 23 -100 23 -39 0 -78 -6 -94 -15z"/>
    <path d="M2992 2373 l3 -338 43 -3 42 -3 0 123 c1 111 3 127 24 161 l23 37 63 -155 c34 -85 68 -155 74 -156 16 -2 71 2 74 5 1 2 -32 85 -73 185 l-74 183 64 144 c36 79 65 147 65 149 0 3 -18 5 -40 5 l-40 0 -78 -156 -77 -157 -3 157 -3 156 -44 0 -45 0 2 -337z"/>
    <path d="M1060 1595 l0 -325 45 0 45 0 0 150 0 150 85 0 85 0 0 -150 0 -150 45 0 45 0 0 325 0 325 -45 0 -45 0 0 -140 0 -140 -85 0 -85 0 0 140 0 140 -45 0 -45 0 0 -325z"/>
    <path d="M1512 1653 c3 -245 5 -271 23 -307 32 -64 64 -81 150 -81 86 0 118 17 150 81 18 36 20 62 23 307 l3 267 -45 0 -46 0 0 -256 c0 -293 -5 -318 -66 -330 -41 -7 -80 14 -94 52 -6 14 -10 140 -10 280 l0 254 -46 0 -45 0 3 -267z"/>
    <path d="M1960 1594 l0 -326 123 4 c133 3 157 12 192 72 28 46 31 144 7 199 -12 26 -25 47 -29 47 -4 0 -16 7 -26 15 -18 13 -17 15 14 43 31 27 33 35 37 98 6 136 -39 174 -210 174 l-108 0 0 -326z m222 239 c13 -12 18 -31 18 -75 0 -80 -26 -108 -100 -108 l-50 0 0 106 0 107 57 -7 c31 -4 65 -14 75 -23z m-6 -276 c23 -20 28 -34 32 -86 8 -105 -23 -141 -119 -141 l-39 0 0 125 0 125 49 0 c38 0 56 -6 77 -23z"/>
  </g>
</svg>